<?xml version="1.0" encoding="UTF-8"?>
<svg id="_图层_2" data-name="图层 2" xmlns="http://www.w3.org/2000/svg" viewBox="0 0 71.91 27.32">
  <g id="_图层_2-2" data-name="图层 2">
    <g>
      <g>
        <path d="m1.04,19.81l3.84-.85c.54,3.11,2.32,4.66,5.32,4.66,3.29-.06,4.98-1.67,5.07-4.82-.02-2.86-2.05-4.29-6.08-4.29h-2.3l-.03-2.96h1.79c3.84-.02,5.77-1.44,5.79-4.26-.04-2.67-1.46-4.01-4.25-4.04-2.79.02-4.44,1.51-4.94,4.48l-3.71-.82C2.64,2.56,5.6.37,10.42.33c4.99.17,7.64,2.37,7.93,6.59-.04,3.11-1.7,5.06-4.97,5.86v.06c3.61.67,5.53,2.74,5.76,6.21-.25,4.83-3.25,7.33-9,7.5-5,.11-8.03-2.14-9.1-6.75Z"/>
        <path d="m36.96,17.48h3.27v2.84h-3.27v5.89h-3.43v-5.89h-12.37v-2.37L33.5.52h3.46v16.96Zm-12.09,0h8.66V7.51c.02-1.47.05-2.42.09-2.84,0,.02-.02.05-.06.09-.08.23-.24.54-.47.91-.06.11-.2.32-.41.63-.15.25-.26.44-.35.57-.34.44-1.13,1.56-2.39,3.37-.29.42-.52.75-.69.98-.31.44-.62.88-.91,1.32-2.08,2.9-3.23,4.54-3.46,4.92Z"/>
        <path d="m49.08.23c3.71.13,5.63,2.37,5.76,6.71-.11,4.27-2.06,6.46-5.86,6.59-3.65-.17-5.55-2.36-5.7-6.59.13-4.33,2.06-6.57,5.79-6.71Zm-3.15,6.68c.06,2.77,1.1,4.22,3.12,4.35,2.08-.04,3.13-1.51,3.15-4.41-.04-2.84-1.07-4.28-3.08-4.32-2.12,0-3.18,1.46-3.18,4.38ZM62.84.23h3.08l-13.91,27.05h-3.05L62.84.23Zm2.96,13.59c3.71.12,5.63,2.36,5.76,6.71-.11,4.27-2.06,6.46-5.86,6.59-3.65-.17-5.55-2.37-5.7-6.59.13-4.33,2.06-6.57,5.79-6.71Zm-3.15,6.68c.06,2.78,1.1,4.22,3.12,4.35,2.08-.04,3.13-1.51,3.15-4.41-.02-2.84-1.06-4.28-3.12-4.32-2.1,0-3.15,1.46-3.15,4.38Z"/>
      </g>
      <path d="m71.91,27.32H0V0h71.91v27.32ZM.25,27.07h71.41V.25H.25v26.82Z"/>
    </g>
  </g>
</svg>