<?xml version="1.0" encoding="UTF-8"?>
<svg id="_图层_2" data-name="图层 2" xmlns="http://www.w3.org/2000/svg" viewBox="0 0 89.87 34.1">
  <g id="_图层_2-2" data-name="图层 2">
    <g>
      <g>
        <path d="m8.24,16.11v-.08c-3.49-1.1-5.31-3.5-5.47-7.18C3.27,3.52,6.72.69,13.12.38c6.3.34,9.74,3.17,10.31,8.48-.11,3.73-2.02,6.12-5.75,7.18v.04c4.36,1.16,6.64,3.85,6.85,8.08-.16,5.94-4.08,8.96-11.77,9.07-7.17-.24-10.89-3.26-11.18-9.07.26-4.15,2.48-6.83,6.65-8.04Zm4.84,13.6c4.2-.13,6.39-1.97,6.57-5.52-.11-3.65-2.36-5.74-6.77-6.27-4.15.5-6.29,2.54-6.42,6.11.18,3.63,2.39,5.52,6.61,5.68Zm.04-25.82c-3.49.16-5.31,1.85-5.47,5.09.03,3.15,1.85,4.94,5.47,5.36,3.54-.47,5.35-2.25,5.43-5.32-.16-3.29-1.97-4.99-5.43-5.12Z"/>
        <path d="m50.05,7.91l-4.41.95c-.81-3.26-2.69-4.86-5.63-4.81-4.78-.03-7.2,4.1-7.28,12.38,1.68-2.84,4.41-4.29,8.19-4.34,6.09.39,9.36,3.77,9.8,10.13-.42,6.99-4,10.66-10.75,11-8,.16-11.96-5.14-11.85-15.89.1-11.14,4.08-16.79,11.93-16.95,5.35.08,8.69,2.59,10,7.53Zm-10.24,21.64c3.96-.21,6.05-2.55,6.26-7.02-.18-4.39-2.26-6.66-6.22-6.82-4.3.21-6.6,2.25-6.89,6.11.21,4.92,2.49,7.49,6.85,7.73Z"/>
        <path d="m61.7.26c4.65.16,7.05,2.96,7.2,8.4-.13,5.34-2.57,8.08-7.32,8.24-4.57-.21-6.94-2.96-7.13-8.24.16-5.41,2.57-8.21,7.24-8.4Zm-3.94,8.36c.08,3.47,1.38,5.28,3.9,5.44,2.6-.05,3.91-1.89,3.94-5.52-.05-3.55-1.34-5.35-3.86-5.4-2.65,0-3.98,1.83-3.98,5.48ZM78.9.26h3.86l-17.4,33.83h-3.82L78.9.26Zm3.7,16.99c4.65.16,7.05,2.96,7.2,8.4-.13,5.34-2.57,8.08-7.32,8.24-4.57-.21-6.94-2.96-7.13-8.24.16-5.41,2.57-8.21,7.24-8.4Zm-3.94,8.36c.08,3.47,1.38,5.28,3.9,5.44,2.6-.05,3.91-1.89,3.94-5.52-.03-3.55-1.33-5.35-3.9-5.4-2.62,0-3.94,1.83-3.94,5.48Z"/>
      </g>
      <path d="m89.87,34.1H0V0h89.87v34.1ZM.25,33.85h89.37V.25H.25v33.6Z"/>
    </g>
  </g>
</svg>