<?xml version="1.0" encoding="UTF-8"?>
<svg id="_图层_2" data-name="图层 2" xmlns="http://www.w3.org/2000/svg" viewBox="0 0 98.31 25.96">
  <g id="_图层_2-2" data-name="图层 2">
    <g>
      <g>
        <path d="m14.73,9.72v11.95c.02.82.12,1.37.28,1.64.23.46.72.68,1.46.68.21,0,.56-.01,1.04-.03.16,0,.34-.01.52-.03s.3-.03.35-.03c.49,0,.73.16.73.48,0,.3-.24.44-.72.44h-.1l-.79-.07c-.18,0-.5-.02-.96-.07-.96-.09-1.63-.14-2.02-.14h-.55c-.53,0-1.2.05-2.02.14-.82.09-1.44.14-1.85.14-.48,0-.72-.14-.72-.41,0-.34.24-.51.73-.51.05,0,.16.01.35.03s.36.03.52.03c.49.02.83.03,1.04.03.74,0,1.23-.23,1.46-.68.16-.27.25-.82.28-1.64V4.82c-.02-.8-.12-1.35-.28-1.64-.23-.46-.71-.68-1.43-.68-.19,0-.55.02-1.08.07-.25.02-.54.03-.87.03-.49,0-.73-.15-.73-.45s.24-.45.72-.45h.1l.79.07c.16,0,.48.02.96.07.94.09,1.61.14,2.02.14h.55c.41,0,1.08-.05,2.02-.14.48-.05.81-.07.99-.07l.75-.07h.14c.46,0,.68.14.68.41,0,.32-.24.48-.73.48-.28,0-.56-.01-.83-.03-.56-.05-.93-.07-1.11-.07-.72,0-1.19.22-1.43.65-.19.3-.28.86-.28,1.68v4.9Z"/>
        <path d="m39.8,23.51L26.99,3.07c-.09-.14-.16-.21-.2-.21-.07,0-.1.11-.1.34v18.45c.02.89.15,1.5.39,1.83.24.33.67.5,1.28.5.18,0,.54-.02,1.06-.07.27-.02.56-.03.86-.03.48,0,.72.15.72.44s-.24.45-.72.45h-.45c-.16-.02-.3-.03-.41-.03-.28-.02-.61-.06-1-.1-.71-.07-1.1-.1-1.17-.1h-2.24s-.44.03-1.17.1c-.16,0-.49.03-1,.1-.12,0-.25.01-.41.03h-.48c-.48,0-.72-.14-.72-.41,0-.32.25-.48.76-.48.3,0,.59.01.87.03.53.05.89.07,1.08.07.7,0,1.17-.23,1.43-.68.14-.3.22-.84.24-1.64V5.23c-.02-1.1-.08-1.77-.17-2.02-.21-.46-.73-.68-1.57-.68-.34,0-.65,0-.92.02-.55.03-.84.05-.89.05h-.1c-.48,0-.72-.13-.72-.4,0-.33.24-.49.72-.49.18,0,.48.03.89.1,1.03.07,1.64.1,1.82.1h.86c.48-.14.8-.21.96-.21.43,0,.79.24,1.06.72l.34.58,12.74,20.09c.07.16.16.24.27.24.09,0,.14-.12.14-.38V4.85c-.02-.8-.12-1.35-.28-1.64-.23-.46-.71-.68-1.43-.68-.19,0-.54.01-1.08.03s-.82.03-.87.03c-.49,0-.73-.16-.73-.48,0-.27.24-.41.72-.41h.1l.79.04c.16.03.48.07.96.13.68.09,1.29.13,1.81.13h.96c.55,0,1.15-.04,1.81-.13.27-.03.6-.07.99-.13l.86-.04c.48,0,.72.14.72.41,0,.32-.24.48-.72.48-.05,0-.33-.01-.86-.03s-.88-.03-1.06-.03c-.71,0-1.18.23-1.4.68-.16.3-.25.84-.27,1.64l-.07,2.53v15.69c0,.82-.09,1.33-.27,1.54-.11.11-.29.17-.54.17-.39,0-.84-.42-1.36-1.26Z"/>
        <path d="m61.11,1.91l4.8-.1c.64-.02.96.24.96.79v1.66c-.07.37-.1,1.23-.1,2.59,0,.42.03.89.1,1.42v1.69c0,.51-.16.76-.48.76-.34,0-.51-.25-.51-.75l.03-.07.14-1.99c.09-.66.14-1.49.14-2.5,0-1.35-.12-2.15-.35-2.41-.23-.26-.92-.39-2.07-.39h-4.42c-.6,0-.97.07-1.1.22-.14.15-.21.55-.21,1.21l.07,17.66c0,.82.09,1.39.27,1.71.25.41.73.62,1.44.62.37,0,.72-.02,1.06-.07.18-.02.46-.03.82-.03.48,0,.72.15.72.45s-.23.44-.68.44h-.1l-.79-.07c-.21-.02-.54-.05-.99-.07-1.07-.09-1.68-.14-1.81-.14h-.96c-.21,0-.53.02-.96.07l-.86.07c-.53.05-.84.07-.96.07l-.75.07h-.14c-.48,0-.72-.14-.72-.41,0-.32.25-.48.75-.48.39,0,.67.01.86.03.36.05.72.07,1.06.07.68,0,1.15-.23,1.4-.68.14-.3.22-.84.24-1.64l.07-2.5V4.07c0-.71-.07-1.13-.21-1.27s-.54-.21-1.2-.21h-4.07c-.96,0-1.55.07-1.78.21-.41.23-.63.79-.65,1.68-.02.66-.03,1.5-.03,2.5,0,.25.01.58.03.99l.1,1.95c0,.55-.15.82-.45.82-.32,0-.48-.31-.48-.92v-.1l.1-1.9v-3.87l-.1-1.36c.02-.59.4-.89,1.13-.89.23,0,.81.02,1.75.07,1.88.09,4.49.14,7.85.14h2.02Z"/>
        <path d="m80.42,14.65h-5.1c-.48,0-.72.23-.72.68v6.33c.02.91.16,1.54.4,1.87.24.33.69.5,1.34.5.21,0,.53-.02.96-.07.43-.05.75-.07.96-.07.51,0,.76.16.76.48,0,.3-.24.44-.72.44-.34,0-.96-.05-1.85-.14-1.12-.11-1.73-.17-1.85-.17h-.96c-.07,0-.66.06-1.78.17-.89.09-1.51.14-1.85.14-.5,0-.75-.14-.75-.41,0-.34.25-.51.74-.51.04,0,.33.02.84.07s.87.07,1.04.07c.61,0,1.03-.17,1.26-.5.24-.33.37-.95.39-1.86V4.88c0-.82-.09-1.38-.27-1.67-.22-.43-.68-.65-1.38-.65h-1.89c-.49,0-.74-.14-.74-.43s.24-.43.72-.43h.14l.75.07.99.1s.16.02.41.07c.25.05.5.07.75.07.11,0,.24-.01.38-.03h1.99c.23,0,1.31-.06,3.25-.18,1-.06,1.89-.09,2.67-.09,2.46,0,4.35.59,5.65,1.76s1.95,2.78,1.95,4.82c0,2.16-.72,3.79-2.16,4.89-.87.67-1.87,1.1-3.01,1.31-.68.11-1.79.17-3.32.17Zm-5.79-11.13c-.02.18-.03.45-.03.79v8.66c0,.48.22.78.65.89.11.02.55.03,1.3.03h3.9c2.71,0,4.61-.44,5.68-1.33,1.16-.98,1.75-2.38,1.75-4.2,0-1.96-.63-3.44-1.88-4.44-1.16-.91-2.85-1.36-5.07-1.36-1.16,0-2.58.05-4.24.14-.43.02-.87.03-1.3.03-.46.07-.71.33-.75.79Z"/>
      </g>
      <path d="m98.31,25.96H0V0h98.31v25.96ZM.25,25.71h97.81V.25H.25v25.46Z"/>
    </g>
  </g>
</svg>