<?xml version="1.0" encoding="UTF-8"?>
<svg id="_图层_2" data-name="图层 2" xmlns="http://www.w3.org/2000/svg" viewBox="0 0 56.74 56.71">
  <g id="_图层_2-2" data-name="图层 2">
    <g>
      <path d="m28.39,56.71C12.75,56.71.04,43.99.04,28.35S12.75,0,28.39,0s28.35,12.72,28.35,28.35-12.72,28.35-28.35,28.35ZM28.39.25C12.89.25.29,12.86.29,28.35s12.61,28.1,28.1,28.1,28.1-12.61,28.1-28.1S43.88.25,28.39.25Z"/>
      <path d="m32.54,43.79h-3.63V12.61l-6.45,5.49-2.22-2.52,9.07-7.45h3.22v35.66Z"/>
      <g>
        <path d="m0,43.8h3.54c.45,0,.9.05,1.36.14.46.1.87.26,1.23.49.36.23.66.54.89.93.23.39.34.88.34,1.48,0,.63-.19,1.17-.57,1.64s-.89.77-1.53.91v.03c.77.09,1.41.39,1.92.9s.76,1.2.76,2.07c0,.49-.1.94-.31,1.35-.21.41-.5.75-.88,1.04s-.84.51-1.39.66c-.55.16-1.16.23-1.84.23H0v-11.88Zm1.21,5.2h2.43c.29,0,.58-.03.88-.1.3-.07.57-.18.81-.34.25-.16.44-.38.6-.65.15-.27.23-.6.23-.99s-.08-.7-.23-.96c-.15-.26-.36-.48-.61-.65-.26-.17-.56-.29-.91-.36-.35-.07-.72-.11-1.11-.11H1.21v4.16Zm0,5.63h2.25c.44,0,.85-.04,1.25-.13.4-.08.74-.22,1.04-.4.3-.18.53-.42.71-.72.18-.3.27-.65.27-1.07,0-.78-.27-1.37-.8-1.75-.53-.39-1.28-.58-2.26-.58H1.21v4.65Z"/>
        <path d="m10.58,55.68h-1.33l5.13-11.88h1.17l5.1,11.88h-1.34l-1.31-3.12h-6.14l-1.29,3.12Zm1.74-4.23h5.23l-2.62-6.31-2.62,6.31Z"/>
      </g>
      <path d="m56.74,56.71H.04V0h56.71v56.71Zm-56.46-.25h56.21V.25H.29v56.21Z"/>
    </g>
  </g>
</svg>