<?xml version="1.0" encoding="UTF-8"?>
<svg id="_图层_2" data-name="图层 2" xmlns="http://www.w3.org/2000/svg" viewBox="0 0 56.74 56.71">
  <g id="_图层_2-2" data-name="图层 2">
    <g>
      <path d="m28.39,56.71C12.75,56.71.04,43.99.04,28.35S12.75,0,28.39,0s28.35,12.72,28.35,28.35-12.72,28.35-28.35,28.35ZM28.39.25C12.89.25.29,12.86.29,28.35s12.61,28.1,28.1,28.1,28.1-12.61,28.1-28.1S43.88.25,28.39.25Z"/>
      <path d="m25.29,23.54h1.56c1.14,0,2.22-.12,3.22-.35,1.01-.23,1.89-.61,2.64-1.13.76-.52,1.35-1.2,1.79-2.04.44-.84.66-1.85.66-3.02,0-1.01-.19-1.92-.55-2.75-.37-.82-.88-1.53-1.54-2.12-.65-.59-1.41-1.04-2.27-1.36-.86-.32-1.75-.48-2.7-.48-1.51,0-2.85.35-4,1.06s-2.09,1.75-2.79,3.12l-3.07-1.61c1.11-1.91,2.52-3.33,4.23-4.26,1.71-.92,3.66-1.39,5.84-1.39,1.41,0,2.74.21,4,.63,1.26.42,2.37,1.03,3.34,1.84.97.81,1.73,1.8,2.29,3,.56,1.19.84,2.56.84,4.11,0,2.12-.59,3.89-1.76,5.31-1.18,1.43-2.65,2.38-4.43,2.85v.1c2.05.44,3.75,1.42,5.11,2.95,1.36,1.53,2.04,3.5,2.04,5.92,0,1.71-.31,3.23-.93,4.56-.62,1.33-1.45,2.45-2.49,3.37-1.04.92-2.26,1.63-3.65,2.12-1.39.49-2.86.73-4.41.73-2.62,0-4.9-.63-6.85-1.89-1.95-1.26-3.42-3.06-4.43-5.41l3.42-1.26c.6,1.71,1.61,3.05,3.02,4s3.02,1.44,4.83,1.44c1.01,0,1.99-.18,2.95-.53s1.8-.86,2.52-1.51c.72-.66,1.3-1.45,1.74-2.39.44-.94.66-2.01.66-3.22,0-1.34-.26-2.48-.78-3.4-.52-.92-1.22-1.67-2.09-2.24-.87-.57-1.86-.98-2.97-1.23s-2.25-.38-3.42-.38h-1.56v-3.12Z"/>
      <g>
        <path d="m0,43.8h3.54c.45,0,.9.05,1.36.14.46.1.87.26,1.23.49.36.23.66.54.89.93.23.39.34.88.34,1.48,0,.63-.19,1.17-.57,1.64s-.89.77-1.53.91v.03c.77.09,1.41.39,1.92.9s.76,1.2.76,2.07c0,.49-.1.94-.31,1.35-.21.41-.5.75-.88,1.04s-.84.51-1.39.66c-.55.16-1.16.23-1.84.23H0v-11.88Zm1.21,5.2h2.43c.29,0,.58-.03.88-.1.3-.07.57-.18.81-.34.25-.16.44-.38.6-.65.15-.27.23-.6.23-.99s-.08-.7-.23-.96c-.15-.26-.36-.48-.61-.65-.26-.17-.56-.29-.91-.36-.35-.07-.72-.11-1.11-.11H1.21v4.16Zm0,5.63h2.25c.44,0,.85-.04,1.25-.13.4-.08.74-.22,1.04-.4.3-.18.53-.42.71-.72.18-.3.27-.65.27-1.07,0-.78-.27-1.37-.8-1.75-.53-.39-1.28-.58-2.26-.58H1.21v4.65Z"/>
        <path d="m10.58,55.68h-1.33l5.13-11.88h1.17l5.1,11.88h-1.34l-1.31-3.12h-6.14l-1.29,3.12Zm1.74-4.23h5.23l-2.62-6.31-2.62,6.31Z"/>
      </g>
      <path d="m56.74,56.71H.04V0h56.71v56.71Zm-56.46-.25h56.21V.25H.29v56.21Z"/>
    </g>
  </g>
</svg>