<?xml version="1.0" encoding="UTF-8"?>
<svg id="_图层_2" data-name="图层 2" xmlns="http://www.w3.org/2000/svg" viewBox="0 0 50.89 25.34">
  <g id="_图层_2-2" data-name="图层 2">
    <g>
      <g>
        <polygon points="1.81 0 0 0 0 1.81 0 4.25 1.81 4.25 1.81 1.81 8.26 1.81 8.26 0 1.81 0"/>
        <polygon points="1.81 21.1 0 21.1 0 23.53 0 25.34 1.81 25.34 8.26 25.34 8.26 23.53 1.81 23.53 1.81 21.1"/>
      </g>
      <g>
        <polygon points="49.08 0 50.89 0 50.89 1.81 50.89 4.25 49.08 4.25 49.08 1.81 42.63 1.81 42.63 0 49.08 0"/>
        <polygon points="49.08 21.1 50.89 21.1 50.89 23.53 50.89 25.34 49.08 25.34 42.63 25.34 42.63 23.53 49.08 23.53 49.08 21.1"/>
      </g>
    </g>
  </g>
</svg>