<?xml version="1.0" encoding="UTF-8"?>
<svg id="_图层_2" data-name="图层 2" xmlns="http://www.w3.org/2000/svg" xmlns:xlink="http://www.w3.org/1999/xlink" viewBox="0 0 44.25 35.29">
  <defs>
    <style>
      .cls-1 {
        fill: none;
      }

      .cls-2 {
        clip-path: url(#clippath);
      }

      .cls-3 {
        clip-path: url(#clippath-1);
      }
    </style>
    <clipPath id="clippath">
      <rect class="cls-1" x=".13" y="8.86" width="44" height="26.23"/>
    </clipPath>
    <clipPath id="clippath-1">
      <rect class="cls-1" x="-78.35" y="-7.45" width="207.92" height="63.21"/>
    </clipPath>
  </defs>
  <g id="_图层_2-2" data-name="图层 2">
    <g>
      <g class="cls-2">
        <g class="cls-3">
          <g id="_2B9KuU" data-name="2B9KuU">
            <g>
              <path d="m.8,56.06c0-10.17-.02-20.34-.02-30.5,0-10.46,0-20.92,0-31.39,0-.47,0-.94,0-1.47h2.94c.02.39.05.77.05,1.16,0,20.3,0,40.6,0,60.9,0,.43.07.87.11,1.3H.8Z"/>
              <path d="m33.42,56.06c-.03-.44-.08-.87-.08-1.31,0-20.3,0-40.6,0-60.9,0-.36,0-.72,0-1.14h2.92v1.36c0,20.3,0,40.6,0,60.9,0,.37.02.73.03,1.1h-2.87Z"/>
              <path d="m8.73,56.06c-.01-.37-.03-.73-.03-1.1,0-20.24,0-40.48,0-60.72,0-.47,0-.95,0-1.52h2.9v63.33h-2.87Z"/>
              <path d="m26.37,56.06c.01-.48.04-.95.04-1.43,0-20.21,0-40.41,0-60.62,0-.4,0-.8,0-1.29h2.9c0,.41,0,.8,0,1.19,0,20.35,0,40.71,0,61.06,0,.36-.05.73-.07,1.09h-2.87Z"/>
              <path d="m19.53,56.06c0-9.15-.02-18.29-.02-27.44,0-11.57,0-23.14,0-34.71,0-.36,0-.73,0-1.18h2.01v63.34h-1.98Z"/>
              <path d="m30.33,56.06V-7.28h1.92c.03.18.08.35.08.53,0,20.94,0,41.87-.01,62.81h-1.98Z"/>
              <path d="m41.14,56.06V-7.28h1.94c.03.29.07.57.07.86,0,20.64,0,41.29,0,61.93,0,.18-.02.37-.03.55h-1.98Z"/>
              <path d="m15.57,56.06c0-2.5.02-5,.03-7.49,0-18.22,0-36.44,0-54.67,0-.36,0-.72,0-1.18h1.92c0,.44,0,.86,0,1.29,0,20.21,0,40.41,0,60.62,0,.48.02.95.03,1.43h-1.98Z"/>
              <path d="m24.38,56.06c0-.44.03-.88.03-1.32,0-20.28,0-40.55,0-60.83,0-.29-.04-.6.03-.88.04-.16.29-.38.42-.36.2.03.49.2.54.37.09.31.03.65.03.98,0,20.17,0,40.33,0,60.5,0,.51.03,1.03.05,1.54h-1.1Z"/>
              <path d="m37.17,56.06c.03-.44.07-.88.07-1.31,0-20.24,0-40.48,0-60.72,0-.26-.07-.54.02-.76.1-.24.35-.41.54-.62.15.2.35.38.44.61.07.19.01.43.01.66,0,20.72,0,41.44.01,62.15h-1.1Z"/>
              <path d="m12.48,56.06c.03-.51.08-1.02.09-1.53,0-20.23,0-40.45.01-60.68,0-.57-.27-1.47,1-1.09v63.3h-1.1Z"/>
              <path d="m5.65,56.06c0-16.49.01-32.99.02-49.48,0-4.22,0-8.45,0-12.67,0-.29-.06-.61.04-.87.06-.17.34-.34.54-.36.13-.02.38.21.41.37.07.32.03.66.03.99,0,20.17,0,40.34,0,60.51,0,.51.04,1.02.06,1.54h-1.1Z"/>
            </g>
          </g>
        </g>
      </g>
      <g>
        <path d="m2.74,6.69h3.27v1.28H.93v-.97c.58-.87,1.26-1.59,2.03-2.15,1.08-.81,1.58-1.41,1.5-1.81-.02-.6-.33-.9-.94-.9-.62-.02-1.01.37-1.15,1.15l-1.4-.28C1.23,1.62,2.15.92,3.74.92c1.43.06,2.2.72,2.31,1.96.1.87-.41,1.63-1.53,2.28-.73.52-1.32,1.03-1.78,1.53Z"/>
        <path d="m8.07,4.35v-.03c-.83-.21-1.26-.74-1.28-1.59.12-1.16.95-1.78,2.46-1.84,1.52.06,2.34.68,2.46,1.84,0,.83-.48,1.36-1.43,1.59,1.04.21,1.58.77,1.62,1.68,0,1.37-.94,2.06-2.81,2.06-1.62-.04-2.46-.71-2.53-2,.04-.89.54-1.46,1.5-1.71Zm2.28,1.68c.02-.56-.36-.94-1.15-1.12-.71.19-1.06.55-1.06,1.09.04.6.41.93,1.09.97.73-.02,1.1-.33,1.12-.94Zm-.19-3.21c0-.54-.3-.81-.9-.81-.58.02-.88.29-.9.81-.02.46.28.77.9.94.6-.17.9-.48.9-.94Z"/>
        <path d="m19.14,7.97h-1.72l-.5-1.56h-2.62l-.5,1.56h-1.68l2.56-6.96h1.87l2.59,6.96Zm-2.5-2.75l-.87-2.37c-.06-.21-.12-.41-.16-.59h-.03c-.02.17-.07.38-.16.62l-.78,2.34h2Z"/>
        <path d="m28.87,8.78h-1.19c-1-1.12-1.5-2.5-1.5-4.12.02-1.56.52-2.94,1.5-4.15h1.19c-.89,1.23-1.34,2.61-1.34,4.15s.45,2.91,1.34,4.12Z"/>
        <path d="m34.71,4.48c.04,2.43-.84,3.63-2.65,3.59-1.75-.04-2.63-1.23-2.65-3.55.06-2.33.95-3.54,2.65-3.62,1.75.02,2.63,1.21,2.65,3.59Zm-1.62.03c.02-1.68-.31-2.51-1-2.46-.71-.02-1.06.8-1.06,2.46s.35,2.4,1.06,2.4,1.02-.8,1-2.4Z"/>
        <path d="m40.57,4.48c.04,2.43-.84,3.63-2.65,3.59-1.75-.04-2.63-1.23-2.65-3.55.06-2.33.95-3.54,2.65-3.62,1.75.02,2.63,1.21,2.65,3.59Zm-1.62.03c.02-1.68-.31-2.51-1-2.46-.71-.02-1.06.8-1.06,2.46s.35,2.4,1.06,2.4,1.02-.8,1-2.4Z"/>
        <path d="m42.35,8.78h-1.22c.92-1.19,1.37-2.55,1.37-4.09s-.45-2.91-1.34-4.18h1.19c1.02,1.21,1.52,2.6,1.5,4.18,0,1.58-.5,2.94-1.5,4.09Z"/>
      </g>
      <path d="m44.25,35.29H0V0h44.25v35.29Zm-44-.25h43.75V.25H.25v34.79Z"/>
    </g>
  </g>
</svg>