<?xml version="1.0" encoding="UTF-8"?>
<svg id="_图层_2" data-name="图层 2" xmlns="http://www.w3.org/2000/svg" viewBox="0 0 85.24 34.58">
  <g id="_图层_2-2" data-name="图层 2">
    <g>
      <g>
        <path d="m2.21,26.05l4.47-.92c.82,3.25,2.74,4.86,5.75,4.84,4.84.05,7.31-4.13,7.39-12.55-1.73,2.88-4.5,4.36-8.3,4.44-6.23-.35-9.52-3.78-9.86-10.31C2.07,4.47,5.73.75,12.63.38c8.07-.19,12.02,5.12,11.86,15.91-.03,11.57-4.1,17.37-12.22,17.39-5.48-.05-8.84-2.6-10.06-7.64Zm17.45-14.07c-.16-5.06-2.46-7.68-6.91-7.84-4.07.16-6.2,2.52-6.39,7.08.16,4.48,2.25,6.8,6.27,6.96,4.39-.21,6.73-2.28,7.03-6.2Z"/>
        <path d="m37.34,33.21V7.98c-2.24,2.24-5.5,4.25-9.78,6.04v-4.24c5.3-2.34,8.93-5.38,10.9-9.12h3.63v32.55h-4.75Z"/>
        <path d="m56.66.26c4.71.16,7.15,3,7.31,8.52-.13,5.41-2.61,8.2-7.43,8.36-4.63-.21-7.04-3-7.23-8.36.16-5.49,2.61-8.33,7.35-8.52Zm-3.99,8.48c.08,3.52,1.4,5.36,3.95,5.52,2.64-.05,3.97-1.92,3.99-5.6-.05-3.6-1.36-5.42-3.91-5.48-2.69,0-4.03,1.85-4.03,5.56ZM74.11.26h3.91l-17.65,34.3h-3.87L74.11.26Zm3.75,17.23c4.71.16,7.15,3,7.31,8.52-.13,5.41-2.61,8.2-7.43,8.36-4.63-.21-7.04-3-7.23-8.36.16-5.49,2.61-8.33,7.35-8.52Zm-3.99,8.48c.08,3.52,1.4,5.36,3.95,5.52,2.64-.05,3.97-1.92,3.99-5.6-.03-3.6-1.34-5.42-3.95-5.48-2.66,0-3.99,1.85-3.99,5.56Z"/>
      </g>
      <path d="m85.24,34.58H0V0h85.24v34.58ZM.25,34.33h84.74V.25H.25v34.08Z"/>
    </g>
  </g>
</svg>