<?xml version="1.0" encoding="UTF-8"?>
<svg id="_图层_2" data-name="图层 2" xmlns="http://www.w3.org/2000/svg" viewBox="0 0 77.17 31.32">
  <g id="_图层_2-2" data-name="图层 2">
    <g>
      <g>
        <path d="m1.39,22.58l4.26-.98c.6,3.64,2.65,5.48,6.14,5.5,3.76-.24,5.75-2.41,5.96-6.51-.14-4.17-2.16-6.32-6.04-6.44-2.58.05-4.48,1-5.71,2.86l-3.43-.15L3.92,1.01h16.59l.04,3.58H7.57l-.9,8.69c1.61-1.54,3.67-2.32,6.18-2.32,5.9.27,9,3.38,9.29,9.34-.22,6.56-3.61,9.95-10.19,10.17-5.71,0-9.23-2.63-10.55-7.89Z"/>
        <path d="m33.66,30.07V7.23c-2.02,2.03-4.97,3.85-8.85,5.46v-3.84c4.79-2.12,8.08-4.87,9.87-8.25h3.29v29.46h-4.3Z"/>
        <path d="m51.15.25c4.26.15,6.47,2.71,6.61,7.71-.12,4.9-2.36,7.42-6.72,7.56-4.19-.19-6.37-2.71-6.54-7.56.14-4.97,2.36-7.54,6.65-7.71Zm-3.61,7.67c.07,3.18,1.26,4.85,3.58,4.99,2.38-.05,3.59-1.74,3.61-5.07-.05-3.26-1.23-4.91-3.54-4.96-2.43,0-3.65,1.68-3.65,5.03ZM66.95.25h3.54l-15.97,31.05h-3.5L66.95.25Zm3.4,15.6c4.26.14,6.47,2.71,6.61,7.71-.12,4.9-2.36,7.42-6.72,7.56-4.19-.19-6.37-2.71-6.54-7.56.14-4.97,2.36-7.54,6.65-7.71Zm-3.61,7.67c.07,3.18,1.26,4.85,3.58,4.99,2.38-.05,3.59-1.74,3.61-5.07-.02-3.26-1.22-4.91-3.58-4.96-2.41,0-3.61,1.68-3.61,5.03Z"/>
      </g>
      <path d="m77.17,31.32H0V0h77.17v31.32ZM.25,31.07h76.67V.25H.25v30.82Z"/>
    </g>
  </g>
</svg>