<?xml version="1.0" encoding="UTF-8"?>
<svg id="_图层_2" data-name="图层 2" xmlns="http://www.w3.org/2000/svg" viewBox="0 0 243.54 53.42">
  <g id="_图层_1-2" data-name="图层 1">
    <path d="m28.56,45.35V10.8h-11.15v-3h25.3v3h-11.1v34.55h-3.05Z"/>
    <path d="m71.22,45.35l-3.34-8.85h-18.91l-3.34,8.88h-3.24L56.83,7.85h3.24l14.44,37.53-3.29-.03Zm-12.79-33.93l-8.38,22.19h16.75l-8.37-22.19Z"/>
    <path d="m94.35,45.91c-2.45.05-4.89-.43-7.14-1.41-2.05-.93-3.88-2.29-5.35-4-1.51-1.8-2.66-3.88-3.36-6.12-1.55-5.05-1.55-10.46,0-15.51.7-2.24,1.85-4.32,3.36-6.12,1.47-1.71,3.3-3.07,5.35-4,2.25-.98,4.68-1.47,7.14-1.43,2.36-.02,4.71.38,6.94,1.18,2.05.72,3.94,1.85,5.55,3.31l-1.39,2.53c-1.49-1.25-3.18-2.25-5-2.95-1.94-.74-4-1.11-6.07-1.09-2-.03-3.98.37-5.81,1.18-1.69.77-3.18,1.91-4.36,3.34-1.25,1.53-2.18,3.28-2.75,5.17-.68,2.15-1.01,4.39-1,6.65-.01,2.27.32,4.52,1,6.69.56,1.89,1.5,3.65,2.75,5.17,1.19,1.41,2.68,2.55,4.36,3.31,3.91,1.62,8.32,1.51,12.14-.31,1.82-.96,3.37-2.36,4.52-4.07v-8.82h-11.39v-3h14.44v12.92c-1.41,2.27-3.39,4.13-5.73,5.42-2.52,1.34-5.34,2.02-8.2,1.96Z"/>
    <path d="m116.4,45.35V7.82h3v34.55h17.12v3l-20.12-.02Z"/>
    <path d="m143.59,45.35V7.82h22.72v2.92h-19.69v13.88h18.15v2.88h-18.15v14.95h19.69v2.92l-22.72-.02Z"/>
    <path d="m198.18,45.35l-21.28-33.09v33.09h-3V7.82h3.55l21.26,33.09V7.82h3v37.53h-3.53Z"/>
    <path d="m219.92,45.35V10.8h-11.16v-3h25.29v3h-11.1v34.55h-3.03Z"/>
    <path d="m243.54,53.42H0V0h243.54v53.42ZM2,51.42h239.54V2H2v49.42Z"/>
    <circle cx="9.25" cy="9.18" r="2.69"/>
  </g>
</svg>