<?xml version="1.0" encoding="UTF-8"?>
<svg id="_图层_2" data-name="图层 2" xmlns="http://www.w3.org/2000/svg" viewBox="0 0 15.42 15.42">
  <g id="_图层_2-2" data-name="图层 2">
    <path d="m5.44.26l1.69,1.88c.31.35.86.35,1.17,0l1.69-1.87c.5-.55,1.41-.17,1.37.57l-.13,2.52c-.02.47.36.85.83.83l2.52-.12c.74-.04,1.12.88.57,1.38l-1.88,1.69c-.35.31-.35.86,0,1.17l1.87,1.69c.55.5.17,1.41-.57,1.37l-2.52-.13c-.47-.02-.85.36-.83.83l.12,2.52c.04.74-.88,1.12-1.38.57l-1.69-1.88c-.31-.35-.86-.35-1.17,0l-1.69,1.87c-.5.55-1.41.17-1.37-.57l.13-2.52c.02-.47-.36-.85-.83-.83l-2.52.12c-.74.04-1.12-.88-.57-1.38l1.88-1.69c.35-.31.35-.86,0-1.17l-1.87-1.69c-.55-.5-.17-1.41.57-1.37l2.52.13c.47.02.85-.36.83-.83l-.12-2.52c-.04-.74.88-1.12,1.38-.57Z"/>
  </g>
</svg>