<?xml version="1.0" encoding="UTF-8"?>
<svg id="_图层_2" data-name="图层 2" xmlns="http://www.w3.org/2000/svg" viewBox="0 0 56.74 56.71">
  <g id="_图层_2-2" data-name="图层 2">
    <g>
      <path d="m28.39,56.71C12.75,56.71.04,43.99.04,28.35S12.75,0,28.39,0s28.35,12.72,28.35,28.35-12.72,28.35-28.35,28.35ZM28.39.25C12.89.25.29,12.86.29,28.35s12.61,28.1,28.1,28.1,28.1-12.61,28.1-28.1S43.88.25,28.39.25Z"/>
      <path d="m32.54,43.79h-3.63V12.61l-6.45,5.49-2.22-2.52,9.07-7.45h3.22v35.66Z"/>
      <g>
        <path d="m5.87,53.63h.02l3.97-9.83h1.84v11.88h-1.21v-10.31h-.03l-4.29,10.31h-.64l-4.29-10.31h-.03v10.31H0v-11.88h1.85l4.02,9.83Z"/>
        <path d="m14.78,55.68h-1.33l5.13-11.88h1.17l5.1,11.88h-1.34l-1.31-3.12h-6.14l-1.29,3.12Zm1.74-4.23h5.23l-2.62-6.31-2.62,6.31Z"/>
      </g>
      <path d="m56.74,56.71H.04V0h56.71v56.71Zm-56.46-.25h56.21V.25H.29v56.21Z"/>
    </g>
  </g>
</svg>