<?xml version="1.0" encoding="UTF-8"?>
<svg id="_图层_2" data-name="图层 2" xmlns="http://www.w3.org/2000/svg" viewBox="0 0 56.74 56.71">
  <g id="_图层_2-2" data-name="图层 2">
    <g>
      <path d="m28.39,56.71C12.75,56.71.04,43.99.04,28.35S12.75,0,28.39,0s28.35,12.72,28.35,28.35-12.72,28.35-28.35,28.35ZM28.39.25C12.89.25.29,12.86.29,28.35s12.61,28.1,28.1,28.1,28.1-12.61,28.1-28.1S43.88.25,28.39.25Z"/>
      <path d="m39.84,43.79h-22.77v-3.78l14.61-14.76c.54-.54,1.07-1.12,1.59-1.74.52-.62.98-1.27,1.38-1.94.4-.67.72-1.38.96-2.14.23-.75.35-1.54.35-2.34,0-1.04-.18-1.98-.55-2.82-.37-.84-.88-1.55-1.54-2.14-.66-.59-1.41-1.04-2.27-1.36-.86-.32-1.75-.48-2.69-.48-1.91,0-3.53.6-4.84,1.79-1.31,1.19-2.15,2.71-2.52,4.56l-3.58-.71c.23-1.24.68-2.4,1.33-3.48.66-1.07,1.46-2,2.42-2.77s2.04-1.38,3.25-1.81c1.21-.44,2.52-.66,3.93-.66s2.81.21,4.1.63c1.29.42,2.42,1.04,3.39,1.86.96.82,1.74,1.85,2.32,3.07.58,1.23.87,2.64.87,4.26,0,1.14-.16,2.2-.48,3.17s-.74,1.9-1.26,2.77c-.52.87-1.13,1.71-1.84,2.49-.71.79-1.44,1.57-2.22,2.34l-12.84,12.74h18.89v3.22Z"/>
      <g>
        <path d="m5.87,53.63h.02l3.97-9.83h1.84v11.88h-1.21v-10.31h-.03l-4.29,10.31h-.64l-4.29-10.31h-.03v10.31H0v-11.88h1.85l4.02,9.83Z"/>
        <path d="m14.78,55.68h-1.33l5.13-11.88h1.17l5.1,11.88h-1.34l-1.31-3.12h-6.14l-1.29,3.12Zm1.74-4.23h5.23l-2.62-6.31-2.62,6.31Z"/>
      </g>
      <path d="m56.74,56.71H.04V0h56.71v56.71Zm-56.46-.25h56.21V.25H.29v56.21Z"/>
    </g>
  </g>
</svg>