<?xml version="1.0" encoding="UTF-8"?>
<svg id="_图层_2" data-name="图层 2" xmlns="http://www.w3.org/2000/svg" viewBox="0 0 98.31 25.96">
  <g id="_图层_2-2" data-name="图层 2">
    <g>
      <g>
        <path d="m21.65,24.81l-2.98-.12-4.38-.04-3.83-.12h-3.05c-.16,0-.41.01-.75.03-.21,0-.54.02-.99.07l-.86.07h-.14c-.64,0-.96-.17-.96-.51,0-.36.29-.55.86-.55.09,0,.16.01.21.03l.92.1c.41.05.79.07,1.13.07.68,0,1.12-.27,1.3-.82.09-.25.14-.82.14-1.71V5.13c0-.91-.05-1.48-.14-1.71-.16-.55-.59-.82-1.3-.82-.34,0-.72.02-1.13.07l-.92.1h-.17c-.59,0-.89-.18-.89-.55,0-.34.31-.51.93-.51.14,0,.19,0,.17,0,1.37.14,2.25.21,2.64.21h11.25l2.95-.21h.21c.75,0,1.13.35,1.13,1.06,0,.23-.02.67-.07,1.33-.05.66-.07,1.42-.07,2.26,0,1.35.05,2.38.14,3.12v.21c0,.8-.17,1.2-.51,1.2s-.51-.34-.51-1.03v-.27c.04-.48.08-.96.1-1.44v-1.3l.1-1.34v-.31c0-1.21-.17-1.95-.51-2.21-.34-.26-1.3-.39-2.88-.39h-7.43c-.98,0-1.58.15-1.78.46-.21.31-.31,1.24-.31,2.79v5.48c.02.5.1.8.24.91.14.1.54.15,1.2.15h3.61c1.81,0,2.72-.59,2.72-1.78v-1.06l-.17-1.3c0-.62.17-.92.5-.92.35,0,.53.32.53.96,0,.16-.05.6-.14,1.33-.11,1.19-.17,2.2-.17,3.05,0,1.96.1,3.7.31,5.2v.31c0,.64-.16.96-.48.96-.37,0-.55-.36-.55-1.1v-.17l.17-1.23v-1.37c0-.84-.19-1.42-.58-1.73-.39-.31-1.1-.46-2.12-.46h-3.8c-.59,0-.95.08-1.08.22-.13.15-.19.54-.19,1.18v7.26c0,.64.01,1.03.03,1.16.09.46.31.74.65.86.23.07.87.1,1.92.1h6.33c2.05,0,3.3-.19,3.75-.57.45-.38.67-1.41.67-3.1,0-.57-.01-1.07-.03-1.51l-.07-1.4c0-.68.16-1.03.48-1.03.3,0,.45.29.45.86v.14l-.1,1.06c0,.32-.02.79-.05,1.42s-.05,1.1-.05,1.42v1.99c0,.66-.11,1.11-.33,1.35-.22.24-.63.35-1.25.33Z"/>
        <path d="m45.48,23.51L32.67,3.07c-.09-.14-.16-.21-.2-.21-.07,0-.1.11-.1.34v18.45c.02.89.15,1.5.39,1.83.24.33.67.5,1.28.5.18,0,.54-.02,1.06-.07.27-.02.56-.03.86-.03.48,0,.72.15.72.44s-.24.45-.72.45h-.45c-.16-.02-.3-.03-.41-.03-.28-.02-.61-.06-1-.1-.71-.07-1.1-.1-1.17-.1h-2.24s-.44.03-1.17.1c-.16,0-.49.03-1,.1-.12,0-.25.01-.41.03h-.48c-.48,0-.72-.14-.72-.41,0-.32.25-.48.76-.48.3,0,.59.01.87.03.53.05.89.07,1.08.07.7,0,1.17-.23,1.43-.68.14-.3.22-.84.24-1.64V5.23c-.02-1.1-.08-1.77-.17-2.02-.21-.46-.73-.68-1.57-.68-.34,0-.65,0-.92.02-.55.03-.84.05-.89.05h-.1c-.48,0-.72-.13-.72-.4,0-.33.24-.49.72-.49.18,0,.48.03.89.1,1.03.07,1.64.1,1.82.1h.86c.48-.14.8-.21.96-.21.43,0,.79.24,1.06.72l.34.58,12.74,20.09c.07.16.16.24.27.24.09,0,.14-.12.14-.38V4.85c-.02-.8-.12-1.35-.28-1.64-.23-.46-.71-.68-1.43-.68-.19,0-.54.01-1.08.03s-.82.03-.87.03c-.49,0-.73-.16-.73-.48,0-.27.24-.41.72-.41h.1l.79.04c.16.03.48.07.96.13.68.09,1.29.13,1.81.13h.96c.55,0,1.15-.04,1.81-.13.27-.03.6-.07.99-.13l.86-.04c.48,0,.72.14.72.41,0,.32-.24.48-.72.48-.05,0-.33-.01-.86-.03s-.88-.03-1.06-.03c-.71,0-1.18.23-1.4.68-.16.3-.25.84-.27,1.64l-.07,2.53v15.69c0,.82-.09,1.33-.27,1.54-.11.11-.29.17-.54.17-.39,0-.84-.42-1.36-1.26Z"/>
        <path d="m58.11,21.7V5.09c0-.87-.05-1.43-.14-1.68-.18-.5-.61-.75-1.29-.75-.34,0-.71.02-1.12.07l-.92.1h-.17c-.59,0-.88-.16-.88-.48,0-.34.31-.51.92-.51h.17c1.07.11,1.94.17,2.6.17h3.8c3.47,0,6.06-.06,7.77-.17l2.74-.14c.8,0,1.19.27,1.16.82-.02.32-.03.71-.03,1.16v2.91s0,.65,0,2.02v1.13c0,.66-.15.99-.46.99-.13,0-.25-.1-.35-.31-.1-.21-.15-.38-.15-.51,0-.25.02-.6.07-1.06.07-.68.1-1.51.1-2.46,0-1.35-.06-2.19-.17-2.53-.27-.8-.93-1.2-1.98-1.2h-8.31c-1.09,0-1.74.08-1.96.26-.22.17-.32.67-.32,1.49v7.94c.04.23.11.38.19.45.08.07.37.1.87.1h4.17c1.79,0,2.68-.75,2.68-2.26,0-.07-.02-.4-.07-.99-.05-.59-.07-1.03-.07-1.3,0-.66.17-.99.51-.99.32,0,.48.38.48,1.13,0,.27-.03.81-.1,1.61l-.14,1.57c-.05.53-.07,1.07-.07,1.64,0,.68.07,1.75.21,3.18l.14,1.44v.21c0,.66-.17.99-.51.99s-.51-.36-.51-1.1v-.21l.07-.89c.04-.3.07-.64.07-1.03,0-.89-.19-1.5-.56-1.83s-1.07-.5-2.1-.5h-4.29c-.39,0-.64.09-.77.26s-.19.5-.19.98v6.88c0,.82.09,1.39.27,1.71.25.41.73.62,1.44.62.34,0,.7-.02,1.06-.07.18-.02.46-.03.82-.03.5,0,.75.15.75.45s-.24.44-.72.44h-.1l-.79-.07c-.21,0-.53-.02-.96-.07-.89-.09-1.51-.14-1.85-.14h-.96c-.3,0-.89.05-1.78.14-.46.05-.79.07-.99.07l-.75.07h-.14c-.48,0-.72-.14-.72-.41,0-.32.25-.48.75-.48.39,0,.67.01.86.03.37.05.72.07,1.06.07.68,0,1.15-.23,1.4-.68.14-.3.22-.84.24-1.64Z"/>
        <path d="m86.11,14.65h-5.1c-.48,0-.72.23-.72.68v6.33c.02.91.16,1.54.4,1.87.24.33.69.5,1.34.5.21,0,.53-.02.96-.07.43-.05.75-.07.96-.07.51,0,.76.16.76.48,0,.3-.24.44-.72.44-.34,0-.96-.05-1.85-.14-1.12-.11-1.73-.17-1.85-.17h-.96c-.07,0-.66.06-1.78.17-.89.09-1.51.14-1.85.14-.5,0-.75-.14-.75-.41,0-.34.25-.51.74-.51.04,0,.33.02.84.07s.87.07,1.04.07c.61,0,1.03-.17,1.26-.5.24-.33.37-.95.39-1.86V4.88c0-.82-.09-1.38-.27-1.67-.22-.43-.68-.65-1.38-.65h-1.89c-.49,0-.74-.14-.74-.43s.24-.43.72-.43h.14l.75.07.99.1s.16.02.41.07c.25.05.5.07.75.07.11,0,.24-.01.38-.03h1.99c.23,0,1.31-.06,3.25-.18,1-.06,1.89-.09,2.67-.09,2.46,0,4.35.59,5.65,1.76s1.95,2.78,1.95,4.82c0,2.16-.72,3.79-2.16,4.89-.87.67-1.87,1.1-3.01,1.31-.68.11-1.79.17-3.32.17Zm-5.79-11.13c-.02.18-.03.45-.03.79v8.66c0,.48.22.78.65.89.11.02.55.03,1.3.03h3.9c2.71,0,4.61-.44,5.68-1.33,1.16-.98,1.75-2.38,1.75-4.2,0-1.96-.63-3.44-1.88-4.44-1.16-.91-2.85-1.36-5.07-1.36-1.16,0-2.58.05-4.24.14-.43.02-.87.03-1.3.03-.46.07-.71.33-.75.79Z"/>
      </g>
      <path d="m98.31,25.96H0V0h98.31v25.96ZM.25,25.71h97.81V.25H.25v25.46Z"/>
    </g>
  </g>
</svg>