<?xml version="1.0" encoding="UTF-8"?>
<svg id="_图层_2" data-name="图层 2" xmlns="http://www.w3.org/2000/svg" viewBox="0 0 98.31 25.96">
  <g id="_图层_2-2" data-name="图层 2">
    <g>
      <g>
        <path d="m18.16,9.72v11.95c.02.82.12,1.37.28,1.64.23.46.72.68,1.46.68.21,0,.56-.01,1.04-.03.16,0,.34-.01.52-.03s.3-.03.35-.03c.49,0,.73.16.73.48,0,.3-.24.44-.72.44h-.1l-.79-.07c-.18,0-.5-.02-.96-.07-.96-.09-1.63-.14-2.02-.14h-.55c-.53,0-1.2.05-2.02.14-.82.09-1.44.14-1.85.14-.48,0-.72-.14-.72-.41,0-.34.24-.51.73-.51.05,0,.16.01.35.03s.36.03.52.03c.49.02.83.03,1.04.03.74,0,1.23-.23,1.46-.68.16-.27.25-.82.28-1.64V4.82c-.02-.8-.12-1.35-.28-1.64-.23-.46-.71-.68-1.43-.68-.19,0-.55.02-1.08.07-.25.02-.54.03-.87.03-.49,0-.73-.15-.73-.45s.24-.45.72-.45h.1l.79.07c.16,0,.48.02.96.07.94.09,1.61.14,2.02.14h.55c.41,0,1.08-.05,2.02-.14.48-.05.81-.07.99-.07l.75-.07h.14c.46,0,.68.14.68.41,0,.32-.24.48-.73.48-.28,0-.56-.01-.83-.03-.56-.05-.93-.07-1.11-.07-.72,0-1.19.22-1.43.65-.19.3-.28.86-.28,1.68v4.9Z"/>
        <path d="m26.61,21.77l-.14-.24v.58l.07.92c.04.62.07.94.07.96v.07c0,.48-.15.72-.45.72-.34,0-.51-.29-.51-.86v-.17c.09-1.39.14-2.74.14-4.04,0-1.12-.02-2.01-.07-2.67s-.07-1.06-.07-1.2c0-.43.17-.65.5-.65.31,0,.46.18.46.55,0,.21-.03.53-.09.96-.06.43-.09.77-.09.99,0,2.17.64,3.86,1.92,5.07,1.28,1.21,3.07,1.81,5.37,1.81,2.08,0,3.74-.55,5-1.66,1.25-1.11,1.88-2.56,1.88-4.37,0-2.53-1.16-4.07-3.49-4.62-.82-.21-1.92-.35-3.29-.45-5.13-.39-7.7-2.35-7.7-5.89,0-1.83.69-3.35,2.07-4.57,1.38-1.22,3.11-1.83,5.19-1.83,2.51,0,4.39.78,5.65,2.33.3.37.56.9.79,1.61.02-.3.03-.62.03-.96,0-.3-.01-.56-.03-.79l-.07-.72v-.14c0-.55.16-.82.48-.82s.48.21.48.62c0-.02-.05.39-.14,1.23-.09.84-.14,1.88-.14,3.12,0,.94.02,1.64.07,2.12.07.71.1,1.08.1,1.13,0,.43-.15.65-.45.65-.34,0-.51-.23-.51-.68,0-.16.02-.4.05-.72.03-.32.05-.56.05-.72,0-2.03-.56-3.62-1.68-4.76-1.12-1.14-2.66-1.71-4.62-1.71s-3.38.51-4.54,1.54c-1.15,1.03-1.73,2.36-1.73,4.01s.54,2.77,1.61,3.58c1.07.81,2.77,1.32,5.1,1.52,2.03.18,3.51.43,4.43.75.92.32,1.67.86,2.24,1.61.73.94,1.1,2.14,1.1,3.63,0,2.01-.71,3.63-2.12,4.86s-3.27,1.85-5.57,1.85c-1.59,0-3.02-.29-4.29-.86-1.26-.57-2.21-1.35-2.85-2.33l-.24-.38Z"/>
        <path d="m48.96,21.7V5.09c0-.87-.05-1.43-.14-1.68-.18-.5-.61-.75-1.29-.75-.34,0-.71.02-1.12.07l-.92.1h-.17c-.59,0-.88-.16-.88-.48,0-.34.31-.51.92-.51h.17c1.07.11,1.94.17,2.6.17h3.8c3.47,0,6.06-.06,7.77-.17l2.74-.14c.8,0,1.19.27,1.16.82-.02.32-.03.71-.03,1.16v2.91s0,.65,0,2.02v1.13c0,.66-.15.99-.46.99-.13,0-.25-.1-.35-.31-.1-.21-.15-.38-.15-.51,0-.25.02-.6.07-1.06.07-.68.1-1.51.1-2.46,0-1.35-.06-2.19-.17-2.53-.27-.8-.93-1.2-1.98-1.2h-8.31c-1.09,0-1.74.08-1.96.26-.22.17-.32.67-.32,1.49v7.94c.04.23.11.38.19.45.08.07.37.1.87.1h4.17c1.79,0,2.68-.75,2.68-2.26,0-.07-.02-.4-.07-.99-.05-.59-.07-1.03-.07-1.3,0-.66.17-.99.51-.99.32,0,.48.38.48,1.13,0,.27-.03.81-.1,1.61l-.14,1.57c-.05.53-.07,1.07-.07,1.64,0,.68.07,1.75.21,3.18l.14,1.44v.21c0,.66-.17.99-.51.99s-.51-.36-.51-1.1v-.21l.07-.89c.04-.3.07-.64.07-1.03,0-.89-.19-1.5-.56-1.83s-1.07-.5-2.1-.5h-4.29c-.39,0-.64.09-.77.26s-.19.5-.19.98v6.88c0,.82.09,1.39.27,1.71.25.41.73.62,1.44.62.34,0,.7-.02,1.06-.07.18-.02.46-.03.82-.03.5,0,.75.15.75.45s-.24.44-.72.44h-.1l-.79-.07c-.21,0-.53-.02-.96-.07-.89-.09-1.51-.14-1.85-.14h-.96c-.3,0-.89.05-1.78.14-.46.05-.79.07-.99.07l-.75.07h-.14c-.48,0-.72-.14-.72-.41,0-.32.25-.48.75-.48.39,0,.67.01.86.03.37.05.72.07,1.06.07.68,0,1.15-.23,1.4-.68.14-.3.22-.84.24-1.64Z"/>
        <path d="m76.97,14.65h-5.1c-.48,0-.72.23-.72.68v6.33c.02.91.16,1.54.4,1.87.24.33.69.5,1.34.5.21,0,.53-.02.96-.07.43-.05.75-.07.96-.07.51,0,.76.16.76.48,0,.3-.24.44-.72.44-.34,0-.96-.05-1.85-.14-1.12-.11-1.73-.17-1.85-.17h-.96c-.07,0-.66.06-1.78.17-.89.09-1.51.14-1.85.14-.5,0-.75-.14-.75-.41,0-.34.25-.51.74-.51.04,0,.33.02.84.07s.87.07,1.04.07c.61,0,1.03-.17,1.26-.5.24-.33.37-.95.39-1.86V4.88c0-.82-.09-1.38-.27-1.67-.22-.43-.68-.65-1.38-.65h-1.89c-.49,0-.74-.14-.74-.43s.24-.43.72-.43h.14l.75.07.99.1s.16.02.41.07c.25.05.5.07.75.07.11,0,.24-.01.38-.03h1.99c.23,0,1.31-.06,3.25-.18,1-.06,1.89-.09,2.67-.09,2.46,0,4.35.59,5.65,1.76s1.95,2.78,1.95,4.82c0,2.16-.72,3.79-2.16,4.89-.87.67-1.87,1.1-3.01,1.31-.68.11-1.79.17-3.32.17Zm-5.79-11.13c-.02.18-.03.45-.03.79v8.66c0,.48.22.78.65.89.11.02.55.03,1.3.03h3.9c2.71,0,4.61-.44,5.68-1.33,1.16-.98,1.75-2.38,1.75-4.2,0-1.96-.63-3.44-1.88-4.44-1.16-.91-2.85-1.36-5.07-1.36-1.16,0-2.58.05-4.24.14-.43.02-.87.03-1.3.03-.46.07-.71.33-.75.79Z"/>
      </g>
      <path d="m98.31,25.96H0V0h98.31v25.96ZM.25,25.71h97.81V.25H.25v25.46Z"/>
    </g>
  </g>
</svg>