<?xml version="1.0" encoding="UTF-8"?>
<svg id="_图层_2" data-name="图层 2" xmlns="http://www.w3.org/2000/svg" viewBox="0 0 98.31 25.96">
  <g id="_图层_2-2" data-name="图层 2">
    <g>
      <g>
        <path d="m21.75,24.81l-2.98-.12-4.38-.04-3.83-.12h-3.05c-.16,0-.41.01-.75.03-.21,0-.54.02-.99.07l-.86.07h-.14c-.64,0-.96-.17-.96-.51,0-.36.29-.55.86-.55.09,0,.16.01.21.03l.92.1c.41.05.79.07,1.13.07.68,0,1.12-.27,1.3-.82.09-.25.14-.82.14-1.71V5.13c0-.91-.05-1.48-.14-1.71-.16-.55-.59-.82-1.3-.82-.34,0-.72.02-1.13.07l-.92.1h-.17c-.59,0-.89-.18-.89-.55,0-.34.31-.51.93-.51.14,0,.19,0,.17,0,1.37.14,2.25.21,2.64.21h11.25l2.95-.21h.21c.75,0,1.13.35,1.13,1.06,0,.23-.02.67-.07,1.33-.05.66-.07,1.42-.07,2.26,0,1.35.05,2.38.14,3.12v.21c0,.8-.17,1.2-.51,1.2s-.51-.34-.51-1.03v-.27c.04-.48.08-.96.1-1.44v-1.3l.1-1.34v-.31c0-1.21-.17-1.95-.51-2.21-.34-.26-1.3-.39-2.88-.39h-7.43c-.98,0-1.58.15-1.78.46-.21.31-.31,1.24-.31,2.79v5.48c.02.5.1.8.24.91.14.1.54.15,1.2.15h3.61c1.81,0,2.72-.59,2.72-1.78v-1.06l-.17-1.3c0-.62.17-.92.5-.92.35,0,.53.32.53.96,0,.16-.05.6-.14,1.33-.11,1.19-.17,2.2-.17,3.05,0,1.96.1,3.7.31,5.2v.31c0,.64-.16.96-.48.96-.37,0-.55-.36-.55-1.1v-.17l.17-1.23v-1.37c0-.84-.19-1.42-.58-1.73-.39-.31-1.1-.46-2.12-.46h-3.8c-.59,0-.95.08-1.08.22-.13.15-.19.54-.19,1.18v7.26c0,.64.01,1.03.03,1.16.09.46.31.74.65.86.23.07.87.1,1.92.1h6.33c2.05,0,3.3-.19,3.75-.57.45-.38.67-1.41.67-3.1,0-.57-.01-1.07-.03-1.51l-.07-1.4c0-.68.16-1.03.48-1.03.3,0,.45.29.45.86v.14l-.1,1.06c0,.32-.02.79-.05,1.42s-.05,1.1-.05,1.42v1.99c0,.66-.11,1.11-.33,1.35-.22.24-.63.35-1.25.33Z"/>
        <path d="m45.59,23.51L32.77,3.07c-.09-.14-.16-.21-.2-.21-.07,0-.1.11-.1.34v18.45c.02.89.15,1.5.39,1.83.24.33.67.5,1.28.5.18,0,.54-.02,1.06-.07.27-.02.56-.03.86-.03.48,0,.72.15.72.44s-.24.45-.72.45h-.45c-.16-.02-.3-.03-.41-.03-.28-.02-.61-.06-1-.1-.71-.07-1.1-.1-1.17-.1h-2.24s-.44.03-1.17.1c-.16,0-.49.03-1,.1-.12,0-.25.01-.41.03h-.48c-.48,0-.72-.14-.72-.41,0-.32.25-.48.76-.48.3,0,.59.01.87.03.53.05.89.07,1.08.07.7,0,1.17-.23,1.43-.68.14-.3.22-.84.24-1.64V5.23c-.02-1.1-.08-1.77-.17-2.02-.21-.46-.73-.68-1.57-.68-.34,0-.65,0-.92.02-.55.03-.84.05-.89.05h-.1c-.48,0-.72-.13-.72-.4,0-.33.24-.49.72-.49.18,0,.48.03.89.1,1.03.07,1.64.1,1.82.1h.86c.48-.14.8-.21.96-.21.43,0,.79.24,1.06.72l.34.58,12.74,20.09c.07.16.16.24.27.24.09,0,.14-.12.14-.38V4.85c-.02-.8-.12-1.35-.28-1.64-.23-.46-.71-.68-1.43-.68-.19,0-.54.01-1.08.03s-.82.03-.87.03c-.49,0-.73-.16-.73-.48,0-.27.24-.41.72-.41h.1l.79.04c.16.03.48.07.96.13.68.09,1.29.13,1.81.13h.96c.55,0,1.15-.04,1.81-.13.27-.03.6-.07.99-.13l.86-.04c.48,0,.72.14.72.41,0,.32-.24.48-.72.48-.05,0-.33-.01-.86-.03s-.88-.03-1.06-.03c-.71,0-1.18.23-1.4.68-.16.3-.25.84-.27,1.64l-.07,2.53v15.69c0,.82-.09,1.33-.27,1.54-.11.11-.29.17-.54.17-.39,0-.84-.42-1.36-1.26Z"/>
        <path d="m66.89,1.91l4.8-.1c.64-.02.96.24.96.79v1.66c-.07.37-.1,1.23-.1,2.59,0,.42.03.89.1,1.42v1.69c0,.51-.16.76-.48.76-.34,0-.51-.25-.51-.75l.03-.07.14-1.99c.09-.66.14-1.49.14-2.5,0-1.35-.12-2.15-.35-2.41-.23-.26-.92-.39-2.07-.39h-4.42c-.6,0-.97.07-1.1.22-.14.15-.21.55-.21,1.21l.07,17.66c0,.82.09,1.39.27,1.71.25.41.73.62,1.44.62.37,0,.72-.02,1.06-.07.18-.02.46-.03.82-.03.48,0,.72.15.72.45s-.23.44-.68.44h-.1l-.79-.07c-.21-.02-.54-.05-.99-.07-1.07-.09-1.68-.14-1.81-.14h-.96c-.21,0-.53.02-.96.07l-.86.07c-.53.05-.84.07-.96.07l-.75.07h-.14c-.48,0-.72-.14-.72-.41,0-.32.25-.48.75-.48.39,0,.67.01.86.03.36.05.72.07,1.06.07.68,0,1.15-.23,1.4-.68.14-.3.22-.84.24-1.64l.07-2.5V4.07c0-.71-.07-1.13-.21-1.27s-.54-.21-1.2-.21h-4.07c-.96,0-1.55.07-1.78.21-.41.23-.63.79-.65,1.68-.02.66-.03,1.5-.03,2.5,0,.25.01.58.03.99l.1,1.95c0,.55-.15.82-.45.82-.32,0-.48-.31-.48-.92v-.1l.1-1.9v-3.87l-.1-1.36c.02-.59.4-.89,1.13-.89.23,0,.81.02,1.75.07,1.88.09,4.49.14,7.85.14h2.02Z"/>
        <path d="m90.11,7.35v6.92c0,2.4-.05,3.93-.14,4.59-.21,1.8-.77,3.17-1.68,4.11-1.51,1.58-3.64,2.36-6.4,2.36-2.24,0-4.04-.51-5.41-1.54-1.37-1.03-2.05-2.4-2.05-4.11,0-1.19.36-2.18,1.09-3s1.63-1.22,2.71-1.22c1.39,0,2.09.51,2.09,1.54,0,.87-.41,1.3-1.23,1.3-.64,0-.96-.31-.96-.92,0-.18.06-.35.19-.51.13-.16.2-.25.22-.27.02-.02.03-.04.03-.07,0-.21-.21-.31-.62-.31-.73,0-1.36.33-1.9.99-.54.66-.8,1.45-.8,2.36,0,1.51.58,2.72,1.75,3.63s2.7,1.37,4.62,1.37c3.77,0,6.08-1.23,6.95-3.7.39-1.1.58-3.08.58-5.96V4.82c0-.8-.08-1.35-.24-1.64-.21-.46-.66-.68-1.36-.68-.21,0-.53.02-.96.05-.43.03-.75.05-.96.05-.51,0-.77-.15-.77-.45s.24-.45.72-.45h.1l.79.07c1.57.14,2.5.21,2.77.21h.82c.32,0,.79-.03,1.4-.1.62-.07,1.08-.1,1.4-.1l.75-.07h.14c.48,0,.72.14.72.41,0,.32-.25.48-.76.48-.3,0-.59-.01-.86-.03-.55-.05-.91-.07-1.07-.07-.69,0-1.16.22-1.42.65-.18.32-.28.88-.28,1.68v2.53Z"/>
      </g>
      <path d="m98.31,25.96H0V0h98.31v25.96ZM.25,25.71h97.81V.25H.25v25.46Z"/>
    </g>
  </g>
</svg>