<?xml version="1.0" encoding="UTF-8"?>
<svg id="_图层_2" data-name="图层 2" xmlns="http://www.w3.org/2000/svg" viewBox="0 0 31.23 17.46">
  <g id="_图层_2-2" data-name="图层 2">
    <g>
      <path d="m13.92,13.27l1.02,1.73c-.8.72-1.79,1.08-2.98,1.1-.67.03-1.47-.15-2.4-.54-.87-.37-1.65-.55-2.35-.54-.96-.03-1.92.31-2.89,1l-1.15-1.85c1.67-.83,2.55-2.01,2.65-3.54.04-.58,0-1.15-.13-1.71h-2.58v-1.67h2.19c-.33-.82-.55-1.69-.63-2.6C4.52,1.76,6.04.25,9.22.13c2.77-.01,4.46,1.26,5.08,3.81l-2.14.5c-.3-1.67-1.21-2.5-2.75-2.5-1.64.01-2.42.96-2.33,2.83.05,1.17.23,1.99.54,2.48h3.69v1.67h-3.41c.06.54.07,1.07.02,1.6-.05,1.46-.8,2.57-2.23,3.33l.02.02c.81-.32,1.66-.48,2.56-.48.49,0,1.15.14,2,.42,1.58.58,2.79.4,3.64-.54Z"/>
      <g>
        <path d="m18.45,10.87v.98l.97-1.12c.08-.09.12-.16.12-.22,0-.01-.04-.06-.12-.15-.08-.09-.12-.23-.12-.41,0-.39.15-.58.45-.58.08,0,.2.01.35.03.16.02.27.03.35.03.08,0,.21-.01.37-.03.16-.02.28-.03.36-.03.34,0,.5.22.5.65,0,.18-.03.32-.1.43s-.16.17-.27.16l-.16-.03s-.07.02-.12.07c-.02.02-.04.04-.08.08l-.95,1.12,1.12,2.2c.05.09.11.14.19.14h.16c.21.02.31.2.31.55,0,.2-.05.37-.14.49-.09.12-.22.18-.37.18-.08,0-.21,0-.38-.03s-.3-.03-.38-.03-.21,0-.38.03-.3.03-.38.03c-.29,0-.44-.21-.44-.62,0-.25.08-.42.22-.52.04-.03.06-.06.06-.1,0-.04-.02-.1-.05-.16l-.57-1.27-.53.59v.67c0,.14.03.2.09.2h.12c.1,0,.18.05.25.16.07.11.1.25.1.41,0,.19-.05.34-.14.46-.1.12-.22.18-.37.18-.04,0-.16-.02-.34-.04-.04,0-.13,0-.27,0-.23,0-.4,0-.51.02-.22.02-.34.04-.36.04-.16,0-.29-.07-.4-.2-.11-.13-.16-.29-.16-.49,0-.16.04-.29.11-.4.07-.11.16-.16.25-.16h.17c.08,0,.13-.05.13-.16v-3.25c0-.11-.04-.16-.13-.16h-.17c-.1,0-.19-.05-.26-.16-.07-.11-.1-.24-.1-.4,0-.19.05-.35.16-.49.11-.13.24-.2.4-.2.07,0,.19.01.37.04.14.02.28.03.42.03.07,0,.25-.02.54-.05.08,0,.14,0,.19,0,.14,0,.27.07.36.2s.15.3.15.49c0,.34-.12.51-.35.52-.1,0-.16.01-.17.02-.04.01-.06.05-.06.1,0,.02,0,.08,0,.18Z"/>
        <path d="m25.57,9.55s-.02.1-.05.18l-2.65,6.03c-.09.2-.25.3-.48.3s-.36-.08-.36-.25c0-.04.02-.11.07-.21l2.67-6.05c.07-.16.22-.25.45-.25s.35.08.35.24Z"/>
        <g>
          <path d="m25.71,12.97l.3,1.32.31-1.32c.01-.06.02-.1.02-.12,0-.04-.03-.07-.1-.1-.1-.04-.14-.14-.14-.29,0-.29.12-.44.36-.44.05,0,.12,0,.2.02.05,0,.12.01.2.01.04,0,.13,0,.25-.02.08,0,.12-.01.14-.01.23,0,.35.13.35.39s-.08.38-.24.38h-.08s-.08.03-.09.1l-.03.09-.59,2.01c-.13.44-.3.84-.49,1.18-.12.2-.27.37-.47.5s-.39.19-.59.19c-.22,0-.41-.07-.56-.21-.15-.14-.22-.32-.22-.53,0-.16.05-.29.14-.41.1-.11.21-.17.35-.17.12,0,.22.04.3.13.08.09.11.2.11.34v.12c.15-.06.27-.23.36-.52.03-.09.04-.16.04-.22,0-.03,0-.06-.01-.11l-.71-2.34c-.03-.09-.06-.13-.1-.14h-.12c-.18,0-.27-.12-.27-.38s.11-.39.32-.39c.05,0,.13,0,.24.02s.18.02.24.02c.13,0,.23,0,.29-.01.09-.01.16-.02.2-.02.22,0,.33.14.33.42,0,.18-.05.29-.16.33-.05.03-.08.06-.08.09h0s.03.12.03.12Z"/>
          <path d="m28.8,12.17v.15c.2-.23.42-.35.66-.35.18,0,.33.08.44.23s.18.35.18.58c0,.2-.04.36-.13.48-.09.12-.2.19-.33.19-.11,0-.21-.05-.28-.14-.07-.09-.11-.2-.11-.33,0-.07.01-.15.04-.25-.2.16-.31.53-.31,1.12v.5c0,.21.03.32.09.32h.19c.07,0,.12.04.17.11.05.07.07.16.07.26,0,.11-.03.2-.09.28-.06.07-.13.11-.23.11-.04,0-.13-.01-.26-.03h-.33c-.12,0-.23,0-.33.01-.14.01-.24.02-.29.02-.1,0-.18-.04-.24-.12s-.09-.18-.09-.31c0-.22.07-.33.22-.33h.13c.07,0,.11-.09.11-.28v-1.33c0-.19-.03-.28-.09-.28-.01,0-.04,0-.07,0-.03,0-.06.01-.08.01-.15,0-.23-.12-.23-.37,0-.27.1-.41.31-.41.04,0,.11,0,.19.02s.15.02.19.02c.07,0,.15,0,.25-.02.05,0,.08-.01.1-.01.09,0,.13.05.13.15Z"/>
        </g>
        <rect x="23.86" y="12.06" width=".23" height=".77"/>
      </g>
      <path d="m31.23,17.46H0V0h31.23v17.46Zm-30.98-.25h30.73V.25H.25v16.96Z"/>
    </g>
  </g>
</svg>