<?xml version="1.0" encoding="UTF-8"?>
<svg id="_图层_2" data-name="图层 2" xmlns="http://www.w3.org/2000/svg" viewBox="0 0 17.04 27.31">
  <g id="_图层_2-2" data-name="图层 2">
    <g>
      <path d="m15.76,15.02l1.16,1.96c-.9.81-2.03,1.23-3.38,1.24-.76.03-1.66-.17-2.73-.61-.99-.42-1.88-.63-2.66-.61-1.09-.03-2.18.35-3.27,1.13l-1.31-2.09c1.89-.94,2.89-2.28,3.01-4.01.04-.65,0-1.3-.15-1.94h-2.92v-1.9h2.49c-.38-.93-.62-1.91-.72-2.94C5.11,1.98,6.83.27,10.44.13c3.14-.01,5.06,1.42,5.76,4.32l-2.42.57c-.33-1.89-1.37-2.83-3.12-2.83-1.86.01-2.74,1.08-2.64,3.21.06,1.32.26,2.26.61,2.81h4.19v1.9h-3.86c.07.61.08,1.21.02,1.81-.06,1.66-.9,2.92-2.53,3.77l.02.02c.92-.36,1.88-.55,2.9-.55.55,0,1.31.16,2.27.48,1.79.65,3.16.45,4.12-.61Z"/>
      <g>
        <path d="m2.59,20.28v1.11l1.1-1.27c.09-.1.13-.18.13-.25,0-.01-.04-.07-.13-.17-.09-.1-.13-.26-.13-.47,0-.44.17-.66.51-.66.09,0,.22.01.4.04.18.02.31.04.4.04.1,0,.23-.01.42-.04.18-.03.32-.04.41-.04.38,0,.57.25.57.73,0,.2-.04.37-.12.49s-.18.19-.31.18l-.18-.03s-.08.03-.13.08c-.02.02-.05.05-.09.09l-1.08,1.27,1.26,2.5c.05.1.12.16.21.16h.18c.24.02.36.23.36.62,0,.23-.05.41-.16.55s-.25.2-.42.2c-.1,0-.24,0-.43-.03-.19-.02-.34-.03-.43-.03s-.24,0-.43.03c-.19.02-.34.03-.43.03-.33,0-.5-.23-.5-.7,0-.28.08-.47.25-.59.05-.04.07-.07.07-.11,0-.05-.02-.11-.05-.18l-.64-1.44-.6.67v.76c0,.15.03.23.1.22h.13c.11,0,.2.05.28.18s.12.28.12.46c0,.21-.05.38-.16.52-.11.14-.25.21-.42.21-.05,0-.18-.02-.39-.05-.04,0-.14,0-.31,0-.26,0-.46,0-.58.02-.24.03-.38.04-.41.04-.18,0-.33-.07-.45-.22-.12-.15-.18-.33-.18-.55,0-.18.04-.33.12-.45.08-.12.18-.18.29-.18h.19c.09,0,.14-.06.14-.18v-3.68c0-.12-.05-.18-.14-.18h-.19c-.12,0-.21-.06-.29-.18-.08-.12-.12-.27-.12-.45,0-.22.06-.4.18-.55.12-.15.27-.22.45-.22.07,0,.21.01.42.04.16.02.32.03.48.03.08,0,.28-.02.61-.06.09,0,.16-.01.21-.01.16,0,.3.08.41.22.11.15.17.34.17.56,0,.38-.13.58-.4.59-.12,0-.18.01-.19.02-.05.01-.07.05-.07.11,0,.03,0,.09,0,.2Z"/>
        <path d="m10.65,18.79s-.02.12-.06.2l-3,6.84c-.1.23-.28.34-.55.34s-.41-.09-.41-.28c0-.05.03-.13.07-.24l3.03-6.85c.08-.19.25-.28.51-.28s.4.09.4.27Z"/>
        <g>
          <path d="m10.82,22.67l.34,1.49.36-1.49c.02-.07.02-.11.02-.13,0-.04-.04-.08-.12-.12-.11-.05-.16-.15-.16-.32,0-.33.14-.5.41-.5.06,0,.13,0,.22.02.06,0,.14.02.22.02.05,0,.14,0,.28-.02.09,0,.14-.02.15-.02.26,0,.39.15.39.44s-.09.43-.27.43h-.09c-.05,0-.09.04-.11.11l-.03.11-.67,2.28c-.15.5-.33.95-.56,1.33-.13.23-.31.42-.53.56s-.45.22-.67.22c-.25,0-.46-.08-.63-.24s-.25-.36-.25-.61c0-.18.05-.33.16-.46.11-.12.24-.19.4-.19.14,0,.25.05.34.15.08.1.13.23.13.39v.13c.17-.07.31-.26.41-.59.03-.1.05-.18.05-.26,0-.03,0-.07-.02-.12l-.8-2.65c-.03-.1-.07-.15-.11-.16h-.13c-.2,0-.3-.14-.3-.43s.12-.44.36-.44c.06,0,.15,0,.27.02.12.01.21.02.27.02.15,0,.26,0,.33-.02.1-.02.18-.02.22-.02.25,0,.37.16.37.47,0,.2-.06.32-.19.37-.06.03-.09.06-.09.1h0s.03.13.03.13Z"/>
          <path d="m14.32,21.77v.17c.23-.26.48-.39.75-.39.2,0,.37.09.5.26.13.17.2.39.2.66,0,.22-.05.4-.15.54-.1.14-.22.21-.37.21-.13,0-.24-.05-.32-.15-.08-.1-.13-.23-.13-.38,0-.08.02-.17.05-.29-.23.18-.35.6-.35,1.27v.57c0,.24.03.36.1.36h.21c.08,0,.14.04.19.12.05.08.08.18.08.3,0,.13-.03.23-.1.31-.07.08-.15.12-.25.12-.05,0-.15-.01-.29-.04h-.37c-.14,0-.26,0-.37.02-.16.02-.27.02-.32.02-.11,0-.21-.04-.27-.13s-.1-.21-.1-.35c0-.25.08-.37.25-.37h.15c.08,0,.12-.11.12-.32v-1.5c0-.21-.03-.32-.1-.32-.01,0-.04,0-.08.01s-.06.01-.08.01c-.17,0-.26-.14-.26-.42,0-.31.12-.46.36-.46.05,0,.12,0,.22.02.09.01.17.02.22.02.08,0,.17,0,.28-.03.05,0,.09-.01.11-.01.1,0,.15.06.15.17Z"/>
        </g>
        <rect x="8.72" y="21.64" width=".26" height=".88"/>
      </g>
      <path d="m17.04,27.31H0V0h17.04v27.31Zm-16.79-.25h16.54V.25H.25v26.81Z"/>
    </g>
  </g>
</svg>